<?xml version="1.0" encoding="UTF-8"?>
<svg width="32" height="32" viewBox="0 0 32 32" fill="none" xmlns="http://www.w3.org/2000/svg">
  <rect width="32" height="32" rx="6" fill="#54B837"/>
  <path d="M16 8C11.5817 8 8 11.5817 8 16C8 20.4183 11.5817 24 16 24C20.4183 24 24 20.4183 24 16C24 11.5817 20.4183 8 16 8ZM19 17H17V19C17 19.5523 16.5523 20 16 20C15.4477 20 15 19.5523 15 19V17H13C12.4477 17 12 16.5523 12 16C12 15.4477 12.4477 15 13 15H15V13C15 12.4477 15.4477 12 16 12C16.5523 12 17 12.4477 17 13V15H19C19.5523 15 20 15.4477 20 16C20 16.5523 19.5523 17 19 17Z" fill="white"/>
</svg>

